<svg aria-hidden="true" style="position: absolute; width: 0; height: 0; overflow: hidden;" version="1.1" xmlns="http://www.w3.org/2000/svg" xmlns:xlink="http://www.w3.org/1999/xlink">
<defs>
<symbol id="Twitter" viewBox="0 0 30 32">
<path d="M9.475 29.001c11.362 0 17.579-10.005 17.579-18.678 0-0.281-0.006-0.569-0.018-0.85 1.209-0.929 2.253-2.080 3.082-3.399-1.126 0.532-2.322 0.88-3.547 1.031 1.289-0.821 2.255-2.111 2.717-3.631-1.213 0.764-2.539 1.302-3.922 1.593-0.932-1.052-2.164-1.749-3.506-1.982s-2.719 0.009-3.918 0.691-2.153 1.763-2.715 3.079c-0.562 1.315-0.701 2.791-0.394 4.199-2.456-0.131-4.859-0.809-7.052-1.99s-4.129-2.838-5.681-4.865c-0.789 1.445-1.030 3.155-0.675 4.782s1.28 3.050 2.587 3.979c-0.981-0.033-1.941-0.314-2.799-0.819v0.081c-0.001 1.516 0.493 2.986 1.396 4.16s2.162 1.978 3.561 2.278c-0.909 0.264-1.863 0.303-2.788 0.113 0.395 1.304 1.163 2.445 2.197 3.263s2.283 1.272 3.572 1.3c-2.188 1.827-4.892 2.817-7.675 2.813-0.494-0.001-0.987-0.033-1.476-0.096 2.827 1.927 6.116 2.951 9.475 2.949z"></path>
</symbol>
<symbol id="LinkedIn" viewBox="0 0 32 32">
<path d="M29.631 0h-27.269c-1.306 0-2.362 1.031-2.362 2.306v27.381c0 1.275 1.056 2.312 2.362 2.312h27.269c1.306 0 2.369-1.037 2.369-2.306v-27.388c0-1.275-1.062-2.306-2.369-2.306zM9.494 27.269h-4.75v-15.275h4.75v15.275zM7.119 9.912c-1.525 0-2.756-1.231-2.756-2.75s1.231-2.75 2.756-2.75c1.519 0 2.75 1.231 2.75 2.75 0 1.512-1.231 2.75-2.75 2.75zM27.269 27.269h-4.744v-7.425c0-1.769-0.031-4.050-2.469-4.050-2.469 0-2.844 1.931-2.844 3.925v7.55h-4.738v-15.275h4.55v2.088h0.063c0.631-1.2 2.181-2.469 4.488-2.469 4.806 0 5.694 3.162 5.694 7.275v8.381z"></path>
</symbol>
<symbol id="Instagram" viewBox="0 0 32 32">
<path d="M16 2.881c4.275 0 4.781 0.019 6.463 0.094 1.562 0.069 2.406 0.331 2.969 0.55 0.744 0.288 1.281 0.638 1.838 1.194 0.562 0.563 0.906 1.094 1.194 1.838 0.219 0.562 0.481 1.412 0.55 2.969 0.075 1.688 0.094 2.194 0.094 6.463 0 4.275-0.019 4.781-0.094 6.463-0.069 1.563-0.331 2.406-0.55 2.969-0.288 0.744-0.638 1.281-1.194 1.837-0.563 0.563-1.094 0.906-1.838 1.194-0.562 0.219-1.412 0.481-2.969 0.55-1.688 0.075-2.194 0.094-6.463 0.094-4.275 0-4.781-0.019-6.463-0.094-1.563-0.069-2.406-0.331-2.969-0.55-0.744-0.287-1.281-0.638-1.838-1.194-0.563-0.562-0.906-1.094-1.194-1.837-0.219-0.563-0.481-1.413-0.55-2.969-0.075-1.687-0.094-2.194-0.094-6.463 0-4.275 0.019-4.781 0.094-6.463 0.069-1.563 0.331-2.406 0.55-2.969 0.288-0.744 0.638-1.281 1.194-1.838 0.563-0.563 1.094-0.906 1.838-1.194 0.563-0.219 1.412-0.481 2.969-0.55 1.681-0.075 2.188-0.094 6.463-0.094zM16 0c-4.344 0-4.887 0.019-6.594 0.094-1.7 0.075-2.869 0.35-3.881 0.744-1.056 0.412-1.95 0.956-2.837 1.85-0.894 0.888-1.438 1.781-1.85 2.831-0.394 1.019-0.669 2.181-0.744 3.881-0.075 1.713-0.094 2.256-0.094 6.6s0.019 4.887 0.094 6.594c0.075 1.7 0.35 2.869 0.744 3.881 0.413 1.056 0.956 1.95 1.85 2.837 0.887 0.888 1.781 1.438 2.831 1.844 1.019 0.394 2.181 0.669 3.881 0.744 1.706 0.075 2.25 0.094 6.594 0.094s4.887-0.019 6.594-0.094c1.7-0.075 2.869-0.35 3.881-0.744 1.050-0.406 1.944-0.956 2.831-1.844s1.438-1.781 1.844-2.831c0.394-1.019 0.669-2.181 0.744-3.881 0.075-1.706 0.094-2.25 0.094-6.594s-0.019-4.888-0.094-6.594c-0.075-1.7-0.35-2.869-0.744-3.881-0.394-1.063-0.938-1.956-1.831-2.844-0.888-0.887-1.781-1.438-2.831-1.844-1.019-0.394-2.181-0.669-3.881-0.744-1.712-0.081-2.256-0.1-6.6-0.1z"></path>
<path d="M16 7.781c-4.537 0-8.219 3.681-8.219 8.219s3.681 8.219 8.219 8.219c4.537 0 8.219-3.681 8.219-8.219s-3.681-8.219-8.219-8.219zM16 21.331c-2.944 0-5.331-2.387-5.331-5.331s2.387-5.331 5.331-5.331c2.944 0 5.331 2.388 5.331 5.331s-2.387 5.331-5.331 5.331z"></path>
<path d="M26.463 7.457c0 1.063-0.863 1.919-1.919 1.919-1.063 0-1.919-0.863-1.919-1.919 0-1.063 0.863-1.919 1.919-1.919s1.919 0.862 1.919 1.919z"></path>
</symbol>
<symbol id="Facebook" viewBox="0 0 32 32">
<path d="M32 16c0-8.837-7.163-16-16-16s-16 7.163-16 16c0 7.986 5.851 14.605 13.5 15.806v-11.181h-4.063v-4.625h4.063v-3.525c0-4.010 2.389-6.225 6.043-6.225 1.75 0 3.582 0.313 3.582 0.313v3.938h-2.017c-1.988 0-2.608 1.233-2.608 2.5v3h4.438l-0.709 4.625h-3.728v11.181c7.649-1.2 13.5-7.82 13.5-15.806z"></path>
</symbol>
</defs>
</svg>
